<svg width="56" height="53" viewBox="0 0 56 53" xmlns="http://www.w3.org/2000/svg" fill="#dddddd">
<path d="M46.4859 43.9551H51.1333L55.794 39.5663L51.147 35.164H46.4859V30.7755L41.8389 26.373L37.1915 30.7755V35.164H32.5445L27.8972 39.5663L32.5445 43.9551H37.1915V48.3573L41.8389 52.7598L46.4859 48.3573V43.9551Z"  />
<path d="M23.7997 30.2406H18.0252L13.9417 26.373L9.8583 30.2406H4.08376V35.6989L0 39.5663L4.08376 43.4339V48.8922H9.8583L13.9417 52.7598L18.0252 48.8922H23.7997V43.4339L27.8969 39.5663L23.7997 35.6989V30.2406Z"  />
<path d="M18.5887 17.582H23.2361L27.8969 13.1933L23.2499 8.791H18.5887V4.40245L13.9417 0L9.29437 4.40245V8.791H4.64736L0 13.1933L4.64736 17.582H9.29437V21.9843L13.9417 26.3728L18.5887 21.9843V17.582Z"  />
<path d="M51.6968 3.86757H45.9223L41.8389 0L37.7555 3.86757H31.9806V9.32589L27.8972 13.1796L31.9806 17.0471V22.5192H37.7555L41.8389 26.3728L45.9223 22.5192H51.6968V17.0471L55.794 13.1933L51.6968 9.32589V3.86757Z"  />
</svg>
